<?xml version="1.0" standalone="no"?>
<!DOCTYPE svg PUBLIC "-//W3C//DTD SVG 20010904//EN"
 "http://www.w3.org/TR/2001/REC-SVG-20010904/DTD/svg10.dtd">
<svg version="1.0" xmlns="http://www.w3.org/2000/svg"
 width="640.000000pt" height="640.000000pt" viewBox="0 0 640.000000 640.000000"
 preserveAspectRatio="xMidYMid meet">

<g transform="translate(0.000000,640.000000) scale(0.100000,-0.100000)"
fill="#000000" stroke="none">
<path d="M4031 5679 c-222 -39 -416 -224 -460 -437 -12 -58 -14 -185 -5 -244
6 -35 9 -38 74 -57 81 -25 125 -26 164 -6 36 19 42 14 29 -29 -10 -31 -8 -34
21 -52 23 -13 47 -18 89 -16 60 3 67 -1 41 -29 -14 -15 -10 -20 53 -55 59 -33
160 -97 269 -171 29 -20 37 -21 61 -11 89 39 224 160 279 250 193 315 26 734
-336 842 -68 20 -208 28 -279 15z"/>
<path d="M1565 5326 c-44 -7 -98 -19 -120 -26 -183 -59 -331 -215 -380 -400
-19 -72 -19 -220 0 -295 62 -244 292 -427 549 -436 l66 -2 59 79 c32 43 82
104 110 134 27 30 50 58 51 61 0 3 -20 19 -45 35 -25 15 -42 31 -38 35 5 4 49
12 98 19 104 13 130 28 92 53 -14 9 -34 29 -45 45 l-20 28 63 -4 c51 -3 72 0
107 18 63 31 104 71 123 117 16 40 15 44 -9 113 -35 101 -80 173 -161 255 -94
96 -221 161 -332 170 -18 2 -45 6 -60 8 -16 3 -64 0 -108 -7z"/>
<path d="M2436 4164 c-16 -42 -6 -53 149 -156 120 -80 151 -106 142 -115 -7
-7 -75 -54 -152 -106 -143 -95 -163 -118 -135 -153 27 -31 64 -15 230 101 202
141 200 139 200 169 0 19 -32 45 -187 150 -188 126 -233 146 -247 110z"/>
<path d="M3764 4060 c-99 -66 -185 -128 -192 -138 -7 -11 -10 -26 -6 -35 8
-23 374 -267 399 -267 27 0 45 19 45 47 0 19 -30 43 -155 125 -85 57 -155 106
-155 109 0 3 67 51 149 105 152 100 177 127 150 160 -6 8 -22 14 -34 14 -12 0
-103 -54 -201 -120z"/>
<path d="M3095 3753 c-112 -29 -129 -194 -26 -248 41 -21 103 -19 132 4 22 18
23 18 56 -2 67 -39 149 -6 179 71 14 35 15 49 5 82 -28 94 -179 140 -169 51 2
-18 13 -31 37 -42 46 -21 55 -42 33 -69 -26 -32 -55 -19 -75 31 -14 35 -20 40
-43 37 -15 -2 -31 -11 -35 -20 -5 -10 -13 -26 -17 -35 -16 -33 -40 -39 -63
-16 -28 27 -20 48 28 70 79 37 44 108 -42 86z"/>
<path d="M2270 2394 c-417 -51 -777 -225 -1084 -523 -120 -117 -135 -141 -111
-177 26 -40 56 -31 113 35 166 191 472 386 743 474 355 116 793 113 1089 -7
170 -69 379 -211 541 -368 115 -112 238 -245 296 -321 53 -69 121 -149 266
-315 165 -187 285 -286 405 -333 80 -32 222 -32 305 0 137 53 198 140 205 290
8 161 -36 317 -161 571 -80 163 -112 210 -142 210 -20 0 -65 -44 -65 -63 0 -8
23 -50 52 -93 113 -173 208 -437 208 -578 0 -141 -47 -209 -166 -242 -133 -36
-248 12 -414 172 -59 58 -133 135 -163 172 -147 180 -192 232 -313 369 -372
420 -673 621 -1056 705 -73 16 -138 21 -303 23 -115 2 -226 1 -245 -1z"/>
</g>
</svg>
